STARTFONT 2.1
FONT -FontForge-IBM Plex Mono Medium-Medium-R-Normal--30-290-75-75-C-180-ISO10646-1
SIZE 29 75 75
FONTBOUNDINGBOX 18 30 0 -6
COMMENT "Generated by fontforge, http://fontforge.sourceforge.net"
COMMENT "Copyright 2017 IBM Corp. All rights reserved."
STARTPROPERTIES 40
FOUNDRY "FontForge"
FAMILY_NAME "IBM Plex Mono Medium"
WEIGHT_NAME "Medium"
SLANT "R"
SETWIDTH_NAME "Normal"
ADD_STYLE_NAME ""
PIXEL_SIZE 30
POINT_SIZE 290
RESOLUTION_X 75
RESOLUTION_Y 75
SPACING "C"
AVERAGE_WIDTH 180
CHARSET_REGISTRY "ISO10646"
CHARSET_ENCODING "1"
FONTNAME_REGISTRY ""
CHARSET_COLLECTIONS "ISO10646-1"
FONT_NAME "IBMPlexMono-Medium"
FACE_NAME "IBM Plex Mono Medium"
COPYRIGHT "Copyright 2017 IBM Corp. All rights reserved."
FONT_VERSION "2.1"
FONT_ASCENT 23
FONT_DESCENT 7
UNDERLINE_POSITION -5
UNDERLINE_THICKNESS 3
X_HEIGHT 14
CAP_HEIGHT 20
RAW_ASCENT 780
RAW_DESCENT 220
NORM_SPACE 18
RELATIVE_WEIGHT 50
RELATIVE_SETWIDTH 50
SUPERSCRIPT_X 0
SUPERSCRIPT_Y 10
SUPERSCRIPT_SIZE 18
SUBSCRIPT_X 0
SUBSCRIPT_Y 2
SUBSCRIPT_SIZE 18
FIGURE_WIDTH 18
AVG_LOWERCASE_WIDTH 180
AVG_UPPERCASE_WIDTH 180
ENDPROPERTIES
CHARS 95
STARTCHAR space
ENCODING 32
SWIDTH 600 0
DWIDTH 18 0
BBX 1 1 0 0
BITMAP
00
ENDCHAR
STARTCHAR exclam
ENCODING 33
SWIDTH 600 0
DWIDTH 18 0
BBX 6 21 6 0
BITMAP
78
78
78
78
78
78
78
38
30
30
30
30
30
00
00
00
78
78
FC
78
78
ENDCHAR
STARTCHAR quotedbl
ENCODING 34
SWIDTH 600 0
DWIDTH 18 0
BBX 8 9 5 13
BITMAP
E7
E7
E7
E7
E7
E7
E7
E7
E7
ENDCHAR
STARTCHAR numbersign
ENCODING 35
SWIDTH 600 0
DWIDTH 18 0
BBX 18 21 0 0
BITMAP
018E00
038E00
038E00
038C00
039C00
031C00
7F1FC0
7F1FC0
7F1FC0
071800
073800
063800
FE3F80
FE3F80
FE3F80
0E3000
0E7000
0C7000
1C7000
1C7000
1C6000
ENDCHAR
STARTCHAR dollar
ENCODING 36
SWIDTH 600 0
DWIDTH 18 0
BBX 16 27 1 -3
BITMAP
01C0
01C0
01C0
07F0
1FFC
3FFE
799E
7184
7180
7180
7980
3F80
3FF0
1FFC
03FE
019E
018F
0187
2187
718F
F99E
7FFE
3FFC
0FF0
01C0
01C0
01C0
ENDCHAR
STARTCHAR percent
ENCODING 37
SWIDTH 600 0
DWIDTH 18 0
BBX 18 21 0 0
BITMAP
1E01C0
3F0380
7F8300
738700
E1C600
E1CE00
61CC00
719C00
7F9800
3F2000
1E1E00
003F00
077F80
0E7380
0CE180
1CE1C0
18E180
386380
307F80
703F00
E01E00
ENDCHAR
STARTCHAR ampersand
ENCODING 38
SWIDTH 600 0
DWIDTH 18 0
BBX 16 21 1 0
BITMAP
0F80
1FE0
3FF0
3870
7820
7000
3800
3800
1C00
1E1F
3F1F
7F9F
F3DC
E1DC
E1F8
E0F8
E078
F0FC
FFDE
7F8E
1F0F
ENDCHAR
STARTCHAR quotesingle
ENCODING 39
SWIDTH 600 0
DWIDTH 18 0
BBX 4 9 7 13
BITMAP
F0
F0
F0
F0
F0
F0
F0
F0
F0
ENDCHAR
STARTCHAR parenleft
ENCODING 40
SWIDTH 600 0
DWIDTH 18 0
BBX 9 27 6 -4
BITMAP
0780
0F00
1C00
1C00
3800
3000
7000
6000
E000
E000
E000
E000
E000
E000
E000
E000
E000
E000
E000
6000
7000
3000
3800
1C00
1C00
0E00
0780
ENDCHAR
STARTCHAR parenright
ENCODING 41
SWIDTH 600 0
DWIDTH 18 0
BBX 9 27 3 -4
BITMAP
F000
7800
3C00
1C00
0E00
0600
0700
0700
0380
0380
0380
0380
0380
0380
0380
0380
0380
0380
0380
0700
0700
0600
0E00
1C00
3C00
3800
F000
ENDCHAR
STARTCHAR asterisk
ENCODING 42
SWIDTH 600 0
DWIDTH 18 0
BBX 16 15 1 1
BITMAP
0180
0180
0180
0180
4182
799E
FFFF
3FF8
07E0
07E0
0FF0
0E70
1C38
3C3C
0810
ENDCHAR
STARTCHAR plus
ENCODING 43
SWIDTH 600 0
DWIDTH 18 0
BBX 14 15 2 2
BITMAP
0300
0300
0300
0300
0300
0300
FFFC
FFFC
FFFC
0300
0300
0300
0300
0300
0300
ENDCHAR
STARTCHAR comma
ENCODING 44
SWIDTH 600 0
DWIDTH 18 0
BBX 6 9 6 -4
BITMAP
7C
78
78
78
F0
F0
E0
E0
C0
ENDCHAR
STARTCHAR hyphen
ENCODING 45
SWIDTH 600 0
DWIDTH 18 0
BBX 10 3 4 8
BITMAP
FFC0
FFC0
FFC0
ENDCHAR
STARTCHAR period
ENCODING 46
SWIDTH 600 0
DWIDTH 18 0
BBX 6 5 6 0
BITMAP
78
FC
FC
FC
78
ENDCHAR
STARTCHAR slash
ENCODING 47
SWIDTH 600 0
DWIDTH 18 0
BBX 14 27 2 -4
BITMAP
003C
0038
0038
0070
0070
0060
00E0
00E0
01C0
01C0
01C0
0380
0380
0300
0700
0700
0E00
0E00
0E00
1C00
1C00
1800
3800
3800
7000
7000
F000
ENDCHAR
STARTCHAR zero
ENCODING 48
SWIDTH 600 0
DWIDTH 18 0
BBX 16 21 1 0
BITMAP
07E0
1FF8
3FFC
3C3C
781E
700E
700E
F00E
F18F
F3CF
F3CF
F18F
F00F
F00E
700E
700E
781E
3C3C
3FFC
1FF8
07E0
ENDCHAR
STARTCHAR one
ENCODING 49
SWIDTH 600 0
DWIDTH 18 0
BBX 16 21 1 0
BITMAP
07E0
0FE0
1FE0
3EE0
3CE0
78E0
F0E0
20E0
00E0
00E0
00E0
00E0
00E0
00E0
00E0
00E0
00E0
00E0
3FFF
3FFF
3FFF
ENDCHAR
STARTCHAR two
ENCODING 50
SWIDTH 600 0
DWIDTH 18 0
BBX 14 21 2 0
BITMAP
0FC0
3FF0
7FF8
F878
E038
E03C
003C
003C
0038
0078
00F0
01E0
03C0
0780
0F00
1E00
7800
F000
FFFC
FFFC
FFFC
ENDCHAR
STARTCHAR three
ENCODING 51
SWIDTH 600 0
DWIDTH 18 0
BBX 15 21 1 0
BITMAP
07E0
1FF8
3FFC
783C
301E
201E
001C
003C
07F8
07E0
07F8
003C
001E
001E
001E
201E
701E
F83C
7FFC
3FF8
0FE0
ENDCHAR
STARTCHAR four
ENCODING 52
SWIDTH 600 0
DWIDTH 18 0
BBX 16 21 1 0
BITMAP
00F8
00F8
01F8
03B8
03B8
0738
0738
0E38
1C38
1C38
3838
3038
7038
E038
FFFF
FFFF
FFFF
0038
0038
0038
0038
ENDCHAR
STARTCHAR five
ENCODING 53
SWIDTH 600 0
DWIDTH 18 0
BBX 14 21 2 0
BITMAP
7FF8
7FF8
7FF8
7000
7000
7000
7000
63E0
6FF0
6FF8
787C
A03C
001C
001C
001C
201C
603C
F878
7FF8
3FF0
0FC0
ENDCHAR
STARTCHAR six
ENCODING 54
SWIDTH 600 0
DWIDTH 18 0
BBX 15 21 2 0
BITMAP
03F0
07C0
0F00
1E00
3C00
3800
7800
73E0
FFF0
EFF8
F87C
F03C
E01C
E01C
E01E
E01C
F03C
787C
7FF8
3FF0
0FC0
ENDCHAR
STARTCHAR seven
ENCODING 55
SWIDTH 600 0
DWIDTH 18 0
BBX 14 21 2 0
BITMAP
FFFC
FFFC
FFFC
E01C
E03C
E038
E078
0070
00F0
00E0
00E0
01E0
01C0
03C0
0380
0780
0780
0700
0F00
0E00
1E00
ENDCHAR
STARTCHAR eight
ENCODING 56
SWIDTH 600 0
DWIDTH 18 0
BBX 16 21 1 0
BITMAP
07E0
1FF8
3FFC
7C3E
781E
700E
700E
781E
3C3C
1FF8
07E0
3FFC
781E
700E
F00F
F00F
700E
781E
7FFE
1FF8
0FE0
ENDCHAR
STARTCHAR nine
ENCODING 57
SWIDTH 600 0
DWIDTH 18 0
BBX 15 21 1 0
BITMAP
07E0
1FF8
3FFC
7C3C
781E
700E
700E
F00E
700E
781E
7C3E
3FEE
1FFE
0F9C
003C
0038
0070
00F0
01E0
07C0
1F80
ENDCHAR
STARTCHAR colon
ENCODING 58
SWIDTH 600 0
DWIDTH 18 0
BBX 6 16 6 0
BITMAP
78
FC
FC
FC
78
00
00
00
00
00
00
78
FC
FC
FC
78
ENDCHAR
STARTCHAR semicolon
ENCODING 59
SWIDTH 600 0
DWIDTH 18 0
BBX 6 20 6 -4
BITMAP
78
FC
FC
FC
78
00
00
00
00
00
00
7C
78
78
78
F0
F0
E0
E0
C0
ENDCHAR
STARTCHAR less
ENCODING 60
SWIDTH 600 0
DWIDTH 18 0
BBX 12 18 3 0
BITMAP
0010
0030
00F0
03F0
07C0
1F00
7E00
F800
E000
E000
F800
7E00
1F80
07C0
03F0
00F0
0030
0010
ENDCHAR
STARTCHAR equal
ENCODING 61
SWIDTH 600 0
DWIDTH 18 0
BBX 14 10 2 4
BITMAP
FFFC
FFFC
FFFC
0000
0000
0000
0000
FFFC
FFFC
FFFC
ENDCHAR
STARTCHAR greater
ENCODING 62
SWIDTH 600 0
DWIDTH 18 0
BBX 12 18 3 0
BITMAP
8000
C000
F000
FC00
3E00
1F80
07E0
01F0
0070
0070
01F0
07E0
0F80
3E00
FC00
F000
C000
8000
ENDCHAR
STARTCHAR question
ENCODING 63
SWIDTH 600 0
DWIDTH 18 0
BBX 14 21 2 0
BITMAP
0FC0
3FF0
7FF8
7878
F038
603C
0038
0078
00F0
07E0
0780
0700
0700
0000
0000
0000
0700
0F80
0F80
0F80
0700
ENDCHAR
STARTCHAR at
ENCODING 64
SWIDTH 600 0
DWIDTH 18 0
BBX 14 24 2 -3
BITMAP
0FC0
3FF0
3FF8
7838
701C
E01C
E1DC
C3EC
C7FC
C71C
C60C
C60C
C60C
C60C
C71C
C7EC
C7EC
E3CC
E000
7000
7800
3FF0
1FF0
07F0
ENDCHAR
STARTCHAR A
ENCODING 65
SWIDTH 600 0
DWIDTH 18 0
BBX 16 21 1 0
BITMAP
03C0
07E0
07E0
07E0
0FF0
0E70
0E70
0E70
1C78
1C38
1C38
3C3C
383C
3FFC
7FFE
7FFE
701E
700E
F00F
F00F
E007
ENDCHAR
STARTCHAR B
ENCODING 66
SWIDTH 600 0
DWIDTH 18 0
BBX 14 21 2 0
BITMAP
FFE0
FFF0
FFF8
F078
F03C
F03C
F03C
F038
F078
FFF0
FFE0
FFF8
F03C
F01C
F01C
F01C
F01C
F03C
FFFC
FFF8
FFE0
ENDCHAR
STARTCHAR C
ENCODING 67
SWIDTH 600 0
DWIDTH 18 0
BBX 14 21 2 0
BITMAP
07C0
1FF0
3FF8
7C7C
701C
F01C
F000
E000
E000
E000
E000
E000
E000
E000
F000
F01C
701C
787C
3FF8
1FF0
0FC0
ENDCHAR
STARTCHAR D
ENCODING 68
SWIDTH 600 0
DWIDTH 18 0
BBX 15 21 2 0
BITMAP
FFC0
FFF0
FFF8
F078
F03C
F03C
F01C
F01C
F01E
F01E
F01E
F01E
F01E
F01C
F01C
F03C
F03C
F078
FFF8
FFF0
FFC0
ENDCHAR
STARTCHAR E
ENCODING 69
SWIDTH 600 0
DWIDTH 18 0
BBX 13 21 3 0
BITMAP
FFF8
FFF8
FFF8
E000
E000
E000
E000
E000
E000
FFF0
FFF0
FFF0
E000
E000
E000
E000
E000
E000
FFF8
FFF8
FFF8
ENDCHAR
STARTCHAR F
ENCODING 70
SWIDTH 600 0
DWIDTH 18 0
BBX 13 21 3 0
BITMAP
FFF8
FFF8
FFF8
E000
E000
E000
E000
E000
E000
FFF0
FFF0
FFF0
E000
E000
E000
E000
E000
E000
E000
E000
E000
ENDCHAR
STARTCHAR G
ENCODING 71
SWIDTH 600 0
DWIDTH 18 0
BBX 15 21 1 0
BITMAP
07E0
1FF8
3FF8
3C3C
781E
780E
7000
7000
F000
F000
F0FE
F0FE
F0FE
700E
700E
780E
781E
3C3E
3FEE
1FEE
0F8E
ENDCHAR
STARTCHAR H
ENCODING 72
SWIDTH 600 0
DWIDTH 18 0
BBX 14 21 2 0
BITMAP
F03C
F03C
F03C
F03C
F03C
F03C
F03C
F03C
F03C
FFFC
FFFC
FFFC
F03C
F03C
F03C
F03C
F03C
F03C
F03C
F03C
F03C
ENDCHAR
STARTCHAR I
ENCODING 73
SWIDTH 600 0
DWIDTH 18 0
BBX 14 21 2 0
BITMAP
FFFC
FFFC
FFFC
0780
0780
0780
0780
0780
0780
0780
0780
0780
0780
0780
0780
0780
0780
0780
FFFC
FFFC
FFFC
ENDCHAR
STARTCHAR J
ENCODING 74
SWIDTH 600 0
DWIDTH 18 0
BBX 13 21 2 0
BITMAP
3FF8
3FF8
3FF8
0078
0078
0078
0078
0078
0078
0078
0078
0078
0078
0078
0078
E078
F078
F0F0
7FF0
3FE0
1F80
ENDCHAR
STARTCHAR K
ENCODING 75
SWIDTH 600 0
DWIDTH 18 0
BBX 16 21 2 0
BITMAP
F01E
F03C
F038
F078
F0F0
F1E0
F3C0
F3C0
F780
FF80
FF80
FDC0
F9E0
F0E0
F0F0
F070
F078
F03C
F03C
F01E
F00F
ENDCHAR
STARTCHAR L
ENCODING 76
SWIDTH 600 0
DWIDTH 18 0
BBX 13 21 3 0
BITMAP
F000
F000
F000
F000
F000
F000
F000
F000
F000
F000
F000
F000
F000
F000
F000
F000
F000
F000
FFF8
FFF8
FFF8
ENDCHAR
STARTCHAR M
ENCODING 77
SWIDTH 600 0
DWIDTH 18 0
BBX 14 21 2 0
BITMAP
F03C
F03C
F87C
F87C
FC7C
FCFC
ECDC
EFDC
EFDC
E79C
E79C
E31C
E31C
E31C
E21C
E01C
E01C
E01C
E01C
E01C
E01C
ENDCHAR
STARTCHAR N
ENCODING 78
SWIDTH 600 0
DWIDTH 18 0
BBX 14 21 2 0
BITMAP
F81C
F81C
F81C
FC1C
FC1C
EE1C
EE1C
EE1C
E71C
E71C
E31C
E39C
E39C
E1DC
E1DC
E1DC
E0FC
E0FC
E07C
E07C
E07C
ENDCHAR
STARTCHAR O
ENCODING 79
SWIDTH 600 0
DWIDTH 18 0
BBX 16 21 1 0
BITMAP
07E0
1FF8
3FFC
3C3C
781E
700E
700E
F00E
F00F
F00F
F00F
F00F
F00F
F00E
700E
700E
781E
3C3C
3FFC
1FF8
07E0
ENDCHAR
STARTCHAR P
ENCODING 80
SWIDTH 600 0
DWIDTH 18 0
BBX 14 21 3 0
BITMAP
FFC0
FFF0
FFF8
E078
E038
E038
E03C
E038
E038
E078
FFF8
FFF0
FFC0
E000
E000
E000
E000
E000
E000
E000
E000
ENDCHAR
STARTCHAR Q
ENCODING 81
SWIDTH 600 0
DWIDTH 18 0
BBX 16 26 1 -5
BITMAP
07E0
1FF8
3FFC
3C3C
781E
700E
700E
F00E
F00F
F00F
F00F
F00F
F00F
F00F
700E
700E
781E
3C3C
3FFC
1FF8
07E0
03C0
03C0
01FC
01FC
00FC
ENDCHAR
STARTCHAR R
ENCODING 82
SWIDTH 600 0
DWIDTH 18 0
BBX 14 21 3 0
BITMAP
FFC0
FFF0
FFF0
E078
E038
E038
E038
E03C
E038
E078
FFF0
FFF0
FFC0
E380
E3C0
E1E0
E0E0
E0F0
E070
E078
E03C
ENDCHAR
STARTCHAR S
ENCODING 83
SWIDTH 600 0
DWIDTH 18 0
BBX 15 21 1 0
BITMAP
07F0
1FF8
3FFE
7C1E
780C
7000
7000
7800
7E00
3FF0
1FFC
03FE
003E
000E
000E
200E
700E
F83E
7FFC
3FF8
0FE0
ENDCHAR
STARTCHAR T
ENCODING 84
SWIDTH 600 0
DWIDTH 18 0
BBX 16 21 1 0
BITMAP
FFFF
FFFF
FFFF
03C0
03C0
03C0
03C0
03C0
03C0
03C0
03C0
03C0
03C0
03C0
03C0
03C0
03C0
03C0
03C0
03C0
03C0
ENDCHAR
STARTCHAR U
ENCODING 85
SWIDTH 600 0
DWIDTH 18 0
BBX 14 21 2 0
BITMAP
E01C
E01C
E01C
E01C
E01C
E01C
E01C
E01C
E01C
E01C
E01C
E01C
E01C
E01C
E03C
F03C
F03C
7878
7FF8
3FF0
0FC0
ENDCHAR
STARTCHAR V
ENCODING 86
SWIDTH 600 0
DWIDTH 18 0
BBX 16 21 1 0
BITMAP
F007
F00F
F00F
700E
780E
781E
381C
381C
3C1C
3C3C
1C38
1C38
1E78
0E70
0E70
0E70
0FF0
07E0
07E0
07E0
03C0
ENDCHAR
STARTCHAR W
ENCODING 87
SWIDTH 600 0
DWIDTH 18 0
BBX 16 21 1 0
BITMAP
E007
E007
E007
E007
E007
E3C7
E3C7
E3C7
E3C7
E3E7
E7E7
6666
6666
7666
766E
7E7E
7E7E
7C3E
7C3E
7C3E
7C3E
ENDCHAR
STARTCHAR X
ENCODING 88
SWIDTH 600 0
DWIDTH 18 0
BBX 16 21 1 0
BITMAP
F00F
780E
781E
3C1C
1C3C
1E78
0E70
0FF0
07E0
03E0
03C0
07E0
07E0
0FF0
1E78
1C38
3C3C
381C
781E
F00F
E00F
ENDCHAR
STARTCHAR Y
ENCODING 89
SWIDTH 600 0
DWIDTH 18 0
BBX 18 21 0 0
BITMAP
F003C0
780780
380700
3C0F00
1C0E00
1E1E00
0E1C00
0F3C00
073800
07F800
03F000
03F000
01E000
01E000
01E000
01E000
01E000
01E000
01E000
01E000
01E000
ENDCHAR
STARTCHAR Z
ENCODING 90
SWIDTH 600 0
DWIDTH 18 0
BBX 16 21 1 0
BITMAP
7FFE
7FFE
7FFE
001E
003C
0038
0078
00F0
01E0
01C0
03C0
0780
0F00
0E00
1E00
3C00
7800
7800
FFFF
FFFF
FFFF
ENDCHAR
STARTCHAR bracketleft
ENCODING 91
SWIDTH 600 0
DWIDTH 18 0
BBX 9 27 6 -4
BITMAP
FF80
FF80
FF80
E000
E000
E000
E000
E000
E000
E000
E000
E000
E000
E000
E000
E000
E000
E000
E000
E000
E000
E000
E000
E000
FF80
FF80
FF80
ENDCHAR
STARTCHAR backslash
ENCODING 92
SWIDTH 600 0
DWIDTH 18 0
BBX 14 27 2 -4
BITMAP
F000
7000
7000
3800
3800
1800
1C00
1C00
0E00
0E00
0E00
0700
0700
0300
0380
0380
01C0
01C0
01C0
00E0
00E0
0060
0070
0070
0038
0038
003C
ENDCHAR
STARTCHAR bracketright
ENCODING 93
SWIDTH 600 0
DWIDTH 18 0
BBX 9 27 3 -4
BITMAP
FF80
FF80
FF80
0380
0380
0380
0380
0380
0380
0380
0380
0380
0380
0380
0380
0380
0380
0380
0380
0380
0380
0380
0380
0380
FF80
FF80
FF80
ENDCHAR
STARTCHAR asciicircum
ENCODING 94
SWIDTH 600 0
DWIDTH 18 0
BBX 16 13 1 8
BITMAP
03C0
07E0
07E0
0FF0
0E70
1C78
1C38
383C
381C
701E
700E
E007
2004
ENDCHAR
STARTCHAR underscore
ENCODING 95
SWIDTH 600 0
DWIDTH 18 0
BBX 14 3 2 -5
BITMAP
FFFC
FFFC
FFFC
ENDCHAR
STARTCHAR grave
ENCODING 96
SWIDTH 600 0
DWIDTH 18 0
BBX 6 6 5 17
BITMAP
60
F0
70
38
18
1C
ENDCHAR
STARTCHAR a
ENCODING 97
SWIDTH 600 0
DWIDTH 18 0
BBX 15 15 2 0
BITMAP
0FC0
3FE0
7FF0
F078
6078
0038
1FF8
7FF8
F038
E038
E078
F0F8
FFBE
7FBE
3F1E
ENDCHAR
STARTCHAR b
ENCODING 98
SWIDTH 600 0
DWIDTH 18 0
BBX 14 22 2 0
BITMAP
F000
F000
F000
F000
F000
F000
F000
F3E0
F7F0
FFF8
F87C
F03C
F01C
F01C
F01C
F01C
F01C
F03C
F87C
FFF8
F7F0
F3E0
ENDCHAR
STARTCHAR c
ENCODING 99
SWIDTH 600 0
DWIDTH 18 0
BBX 14 15 2 0
BITMAP
07C0
1FF0
3FF8
7878
701C
F000
F000
F000
F000
F000
7018
783C
3FF8
1FF0
0FC0
ENDCHAR
STARTCHAR d
ENCODING 100
SWIDTH 600 0
DWIDTH 18 0
BBX 14 22 2 0
BITMAP
003C
003C
003C
003C
003C
003C
003C
1F3C
3FBC
7FFC
F87C
F03C
E03C
E03C
E03C
E03C
E03C
F03C
F87C
7FFC
3FBC
1F3C
ENDCHAR
STARTCHAR e
ENCODING 101
SWIDTH 600 0
DWIDTH 18 0
BBX 14 15 2 0
BITMAP
0FC0
3FF0
7FF8
7878
F03C
E01C
FFFC
FFFC
E000
E000
F010
7838
7FFC
3FF0
0FC0
ENDCHAR
STARTCHAR f
ENCODING 102
SWIDTH 600 0
DWIDTH 18 0
BBX 14 22 2 0
BITMAP
01FC
03FC
03FC
0780
0780
0780
0780
FFFC
FFFC
FFFC
0780
0780
0780
0780
0780
0780
0780
0780
0780
FFFC
FFFC
FFFC
ENDCHAR
STARTCHAR g
ENCODING 103
SWIDTH 600 0
DWIDTH 18 0
BBX 15 24 2 -6
BITMAP
001E
003E
003E
0FE0
3FF0
7FF8
7878
7038
7038
7878
7FF0
3FF0
1FC0
3000
6000
7FF0
7FFC
3FFE
600E
E00E
E01E
FFFE
7FFC
3FE0
ENDCHAR
STARTCHAR h
ENCODING 104
SWIDTH 600 0
DWIDTH 18 0
BBX 13 22 3 0
BITMAP
E000
E000
E000
E000
E000
E000
E000
E7C0
EFE0
FFF0
F0F0
E078
E078
E078
E078
E078
E078
E078
E078
E078
E078
E078
ENDCHAR
STARTCHAR i
ENCODING 105
SWIDTH 600 0
DWIDTH 18 0
BBX 14 22 3 0
BITMAP
0780
0780
0780
0780
0000
0000
0000
FF80
FF80
FF80
0780
0780
0780
0780
0780
0780
0780
0780
0780
FFFC
FFFC
FFFC
ENDCHAR
STARTCHAR j
ENCODING 106
SWIDTH 600 0
DWIDTH 18 0
BBX 11 28 3 -6
BITMAP
01C0
03E0
03E0
01C0
0000
0000
0000
FFC0
FFC0
FFC0
01C0
01C0
01C0
01C0
01C0
01C0
01C0
01C0
01C0
01C0
01C0
01C0
01C0
01C0
01C0
FFC0
FF80
FF00
ENDCHAR
STARTCHAR k
ENCODING 107
SWIDTH 600 0
DWIDTH 18 0
BBX 14 22 3 0
BITMAP
E000
E000
E000
E000
E000
E000
E000
E07C
E0F0
E1E0
E3C0
E780
EF00
FF00
FF80
F380
E3C0
E1E0
E0F0
E078
E078
E03C
ENDCHAR
STARTCHAR l
ENCODING 108
SWIDTH 600 0
DWIDTH 18 0
BBX 14 22 2 0
BITMAP
FF80
FF80
FF80
0780
0780
0780
0780
0780
0780
0780
0780
0780
0780
0780
0780
0780
0780
0780
0780
FFFC
FFFC
FFFC
ENDCHAR
STARTCHAR m
ENCODING 109
SWIDTH 600 0
DWIDTH 18 0
BBX 16 15 1 0
BITMAP
E71C
EFBE
FFFE
F3CF
E187
E187
E187
E187
E187
E187
E187
E187
E187
E187
E187
ENDCHAR
STARTCHAR n
ENCODING 110
SWIDTH 600 0
DWIDTH 18 0
BBX 13 15 3 0
BITMAP
E7C0
EFE0
FFF0
F0F0
E078
E078
E078
E078
E078
E078
E078
E078
E078
E078
E078
ENDCHAR
STARTCHAR o
ENCODING 111
SWIDTH 600 0
DWIDTH 18 0
BBX 14 15 2 0
BITMAP
0FC0
3FF0
7FF8
7878
F03C
E01C
E01C
E01C
E01C
E01C
F03C
7878
7FF8
3FF0
0FC0
ENDCHAR
STARTCHAR p
ENCODING 112
SWIDTH 600 0
DWIDTH 18 0
BBX 14 21 2 -6
BITMAP
F3E0
F7F0
FFF8
F87C
F03C
F01C
F01C
F01C
F01C
F01C
F03C
F87C
FFF8
F7F0
F3E0
F000
F000
F000
F000
F000
F000
ENDCHAR
STARTCHAR q
ENCODING 113
SWIDTH 600 0
DWIDTH 18 0
BBX 14 21 2 -6
BITMAP
1F3C
3FBC
7FFC
F87C
F03C
E03C
E03C
E03C
E03C
E03C
F03C
F87C
7FFC
3FBC
1F3C
003C
003C
003C
003C
003C
003C
ENDCHAR
STARTCHAR r
ENCODING 114
SWIDTH 600 0
DWIDTH 18 0
BBX 15 15 2 0
BITMAP
FF1E
FF7E
FFFE
0FC0
0F00
0F00
0F00
0F00
0F00
0F00
0F00
0F00
FFF8
FFF8
FFF8
ENDCHAR
STARTCHAR s
ENCODING 115
SWIDTH 600 0
DWIDTH 18 0
BBX 14 15 2 0
BITMAP
0FC0
3FF8
7FFC
7038
7000
7C00
7FE0
3FF8
0FF8
003C
401C
703C
FFF8
7FF0
1FE0
ENDCHAR
STARTCHAR t
ENCODING 116
SWIDTH 600 0
DWIDTH 18 0
BBX 15 21 1 0
BITMAP
0700
0700
0700
0700
0700
0700
FFFE
FFFE
FFFE
0700
0700
0700
0700
0700
0700
0700
0700
0700
07FE
03FE
01FE
ENDCHAR
STARTCHAR u
ENCODING 117
SWIDTH 600 0
DWIDTH 18 0
BBX 13 15 2 0
BITMAP
F038
F038
F038
F038
F038
F038
F038
F038
F038
F038
F038
7878
7FF8
3FB8
1F38
ENDCHAR
STARTCHAR v
ENCODING 118
SWIDTH 600 0
DWIDTH 18 0
BBX 16 15 1 0
BITMAP
F00F
700E
781E
381C
381C
3C3C
1C38
1C38
0E70
0E70
0E70
07E0
07E0
07E0
03C0
ENDCHAR
STARTCHAR w
ENCODING 119
SWIDTH 600 0
DWIDTH 18 0
BBX 16 15 1 0
BITMAP
C3C3
E3C3
E3C7
E3C7
E3C7
E767
6666
6666
6666
6666
767E
7C3E
7C3E
3C3C
3C3C
ENDCHAR
STARTCHAR x
ENCODING 120
SWIDTH 600 0
DWIDTH 18 0
BBX 16 15 1 0
BITMAP
780E
381C
3C3C
1E78
0F70
07E0
07C0
03C0
07E0
0FF0
0E70
1C78
3C3C
781E
F01F
ENDCHAR
STARTCHAR y
ENCODING 121
SWIDTH 600 0
DWIDTH 18 0
BBX 16 21 1 -6
BITMAP
F00F
700E
780E
381C
381C
3C3C
1C38
1C38
0E70
0E70
0760
07E0
07E0
03C0
03C0
0380
0380
0780
7F00
7F00
7C00
ENDCHAR
STARTCHAR z
ENCODING 122
SWIDTH 600 0
DWIDTH 18 0
BBX 14 15 2 0
BITMAP
7FF8
7FF8
7FF8
0078
00F0
01E0
03C0
0780
0F00
1E00
3C00
7800
FFFC
FFFC
FFFC
ENDCHAR
STARTCHAR braceleft
ENCODING 123
SWIDTH 600 0
DWIDTH 18 0
BBX 12 27 3 -4
BITMAP
07F0
0FF0
0FF0
0C00
0C00
0C00
0E00
0600
0300
0380
0380
0780
FF00
FC00
FF00
0780
0380
0380
0300
0600
0E00
0C00
0C00
0C00
0FF0
0FF0
07F0
ENDCHAR
STARTCHAR bar
ENCODING 124
SWIDTH 600 0
DWIDTH 18 0
BBX 2 27 8 -4
BITMAP
C0
C0
C0
C0
C0
C0
C0
C0
C0
C0
C0
C0
C0
C0
C0
C0
C0
C0
C0
C0
C0
C0
C0
C0
C0
C0
C0
ENDCHAR
STARTCHAR braceright
ENCODING 125
SWIDTH 600 0
DWIDTH 18 0
BBX 12 27 3 -4
BITMAP
FE00
FF00
FF00
0300
0300
0700
0700
0600
0C00
1C00
1C00
1E00
0FF0
03F0
0FF0
1E00
1C00
1C00
0C00
0600
0700
0300
0300
0300
FF00
FF00
FE00
ENDCHAR
STARTCHAR asciitilde
ENCODING 126
SWIDTH 600 0
DWIDTH 18 0
BBX 16 5 1 7
BITMAP
1E04
3F8F
7FFE
F1FC
2078
ENDCHAR
ENDFONT
